<svg width="26" height="22" viewBox="0 0 26 22" fill="none" xmlns="http://www.w3.org/2000/svg">
<path d="M18.625 0.199951C16.3019 0.199951 14.2679 1.19895 13 2.88758C11.7322 1.19895 9.69815 0.199951 7.37502 0.199951C5.52578 0.202036 3.75287 0.937569 2.44526 2.24518C1.13764 3.5528 0.402109 5.32571 0.400024 7.17495C0.400024 15.05 12.0764 21.4242 12.5736 21.6875C12.7047 21.758 12.8512 21.7949 13 21.7949C13.1488 21.7949 13.2953 21.758 13.4264 21.6875C13.9236 21.4242 25.6 15.05 25.6 7.17495C25.5979 5.32571 24.8624 3.5528 23.5548 2.24518C22.2472 0.937569 20.4743 0.202036 18.625 0.199951ZM13 19.865C10.9458 18.668 2.20002 13.2151 2.20002 7.17495C2.20181 5.803 2.74761 4.48776 3.71772 3.51765C4.68783 2.54753 6.00308 2.00174 7.37502 1.99995C9.56315 1.99995 11.4003 3.16545 12.1675 5.03745C12.2353 5.20252 12.3507 5.34371 12.4989 5.44307C12.6471 5.54243 12.8216 5.59548 13 5.59548C13.1785 5.59548 13.3529 5.54243 13.5011 5.44307C13.6494 5.34371 13.7647 5.20252 13.8325 5.03745C14.5998 3.16208 16.4369 1.99995 18.625 1.99995C19.997 2.00174 21.3122 2.54753 22.2823 3.51765C23.2524 4.48776 23.7982 5.803 23.8 7.17495C23.8 13.2061 15.052 18.6668 13 19.865Z" fill="white"/>
</svg>
