<svg width="19" height="17" viewBox="0 0 19 17" fill="none" xmlns="http://www.w3.org/2000/svg">
<path d="M7.99325 15.3288C7.99325 15.5672 7.92256 15.8002 7.79011 15.9984C7.65767 16.1967 7.46941 16.3512 7.24916 16.4424C7.02891 16.5336 6.78656 16.5575 6.55274 16.511C6.31892 16.4645 6.10415 16.3497 5.93558 16.1811C5.76701 16.0125 5.65221 15.7978 5.6057 15.5639C5.55919 15.3301 5.58306 15.0878 5.67429 14.8675C5.76552 14.6473 5.92001 14.459 6.11823 14.3266C6.31645 14.1941 6.5495 14.1234 6.78789 14.1234C7.10757 14.1234 7.41416 14.2504 7.64021 14.4765C7.86626 14.7025 7.99325 15.0091 7.99325 15.3288ZM14.6227 14.1234C14.3843 14.1234 14.1513 14.1941 13.9531 14.3266C13.7548 14.459 13.6003 14.6473 13.5091 14.8675C13.4179 15.0878 13.394 15.3301 13.4405 15.5639C13.487 15.7978 13.6018 16.0125 13.7704 16.1811C13.939 16.3497 14.1537 16.4645 14.3876 16.511C14.6214 16.5575 14.8637 16.5336 15.084 16.4424C15.3042 16.3512 15.4925 16.1967 15.6249 15.9984C15.7574 15.8002 15.8281 15.5672 15.8281 15.3288C15.8281 15.0091 15.7011 14.7025 15.475 14.4765C15.249 14.2504 14.9424 14.1234 14.6227 14.1234ZM18.2124 4.65761L16.0631 11.6419C15.9505 12.0121 15.7216 12.3362 15.4103 12.5661C15.099 12.796 14.7219 12.9194 14.3349 12.9181H7.09451C6.70199 12.9166 6.32052 12.788 6.00721 12.5516C5.69389 12.3151 5.46561 11.9836 5.35653 11.6065L2.63092 2.06986H1.36379C1.20395 2.06986 1.05065 2.00636 0.937629 1.89334C0.824605 1.78031 0.761108 1.62702 0.761108 1.46718C0.761108 1.30734 0.824605 1.15405 0.937629 1.04102C1.05065 0.927998 1.20395 0.864502 1.36379 0.864502H2.63092C2.89264 0.86537 3.14704 0.950977 3.35604 1.10851C3.56504 1.26604 3.71741 1.48703 3.79032 1.73839L4.40129 3.87789H17.6361C17.7304 3.87786 17.8234 3.89996 17.9076 3.94242C17.9919 3.98487 18.0649 4.0465 18.121 4.12235C18.177 4.19819 18.2145 4.28613 18.2304 4.3791C18.2463 4.47206 18.2401 4.56746 18.2124 4.65761ZM16.8202 5.08325H4.74557L6.51518 11.2758C6.55118 11.4016 6.62719 11.5124 6.73172 11.5912C6.83624 11.67 6.96359 11.7127 7.09451 11.7127H14.3349C14.4639 11.7128 14.5895 11.6714 14.6932 11.5948C14.7969 11.5182 14.8734 11.4103 14.9112 11.2871L16.8202 5.08325Z" fill="white"/>
</svg>
